<?xml version="1.0" standalone="no"?>
<!DOCTYPE svg PUBLIC "-//W3C//DTD SVG 20010904//EN"
 "http://www.w3.org/TR/2001/REC-SVG-20010904/DTD/svg10.dtd">
<svg version="1.0" xmlns="http://www.w3.org/2000/svg"
 width="480.000000pt" height="480.000000pt" viewBox="0 0 480.000000 480.000000"
 preserveAspectRatio="xMidYMid meet">
<metadata>
Created by potrace 1.14, written by Peter Selinger 2001-2017
</metadata>
<g transform="translate(0.000000,480.000000) scale(0.100000,-0.100000)"
fill="#000000" stroke="none">
<path d="M1118 4708 c-21 -11 -135 -103 -328 -268 -10 -8 -83 -70 -163 -138
-151 -127 -177 -162 -162 -214 11 -38 68 -189 176 -468 69 -179 101 -276 100
-300 -1 -21 -29 -82 -75 -165 -41 -71 -84 -148 -96 -170 -110 -195 -163 -290
-195 -345 -21 -36 -40 -84 -42 -107 -6 -45 -10 -37 212 -433 134 -238 161
-292 160 -315 -1 -11 -2 -28 -3 -37 -1 -9 -99 -162 -218 -339 -119 -177 -221
-336 -226 -354 -8 -23 -6 -40 5 -67 24 -56 481 -652 512 -666 14 -7 40 -12 57
-12 17 0 180 49 362 109 182 60 341 112 353 116 12 3 37 0 55 -8 18 -8 179
-105 358 -217 179 -112 343 -214 365 -227 57 -32 106 -30 169 9 28 17 65 39
81 48 17 9 127 75 245 145 366 217 416 245 446 245 16 0 188 -52 382 -116 336
-111 355 -116 392 -105 42 12 37 7 414 505 127 168 128 169 124 215 -4 40 -32
87 -227 376 -221 327 -223 330 -218 375 4 34 33 96 117 245 62 110 144 256
182 325 39 69 72 139 75 155 6 36 -7 62 -223 445 -193 341 -194 343 -194 370
0 12 63 186 140 387 77 202 140 379 140 395 0 42 -22 78 -76 123 -26 22 -52
45 -58 50 -6 6 -51 44 -101 85 -49 41 -92 77 -95 80 -3 3 -58 49 -122 103 -64
53 -122 103 -130 110 -7 7 -28 23 -46 36 -47 33 -111 26 -183 -21 -30 -19
-184 -113 -343 -209 l-289 -174 -336 2 c-185 1 -415 2 -511 2 l-175 1 -347
211 c-205 124 -361 212 -380 215 -18 2 -45 -2 -60 -8z"/>
</g>
</svg>
