<svg width="100%" height="100%" viewBox="0 0 1024 1024" version="1.1" xmlns="http://www.w3.org/2000/svg" xmlns:xlink="http://www.w3.org/1999/xlink" xml:space="preserve" style="fill-rule:evenodd;clip-rule:evenodd;stroke-linecap:round;stroke-miterlimit:1;"><g><g id="porphystruct"><path d="M525.081,1008.24c-8.036,4.765 -18.058,4.652 -25.984,-0.292c-33.463,-20.876 -122.512,-76.429 -152.431,-95.093c-6.311,-3.937 -14.048,-4.86 -21.108,-2.516c-28.901,9.593 -106.404,35.319 -140.9,46.769c-10.145,3.368 -21.309,-0.087 -27.778,-8.598c-22.686,-29.843 -75.016,-98.684 -97.701,-128.526c-6.468,-8.51 -6.811,-20.19 -0.853,-29.065c20.934,-31.18 69.177,-103.037 88.804,-132.27c5.24,-7.805 5.659,-17.889 1.084,-26.102c-17.026,-30.564 -58.557,-105.118 -74.944,-134.536c-4.232,-7.596 -4.212,-16.845 0.051,-24.424c17.957,-31.92 66.091,-117.484 82.738,-147.075c3.648,-6.485 4.218,-14.258 1.555,-21.206c-11.465,-29.911 -43.33,-113.041 -56.997,-148.697c-3.808,-9.932 -0.913,-21.186 7.214,-28.049c28.747,-24.274 95.493,-80.634 124.368,-105.016c8.199,-6.923 19.902,-7.842 29.081,-2.283c34.507,20.9 116.934,70.821 139.711,84.616c3.874,2.347 8.312,3.596 12.841,3.616c32.623,0.144 170.838,0.755 203.717,0.9c4.604,0.02 9.124,-1.231 13.062,-3.616c22.92,-13.881 105.153,-63.686 139.609,-84.555c9.179,-5.559 20.882,-4.64 29.081,2.283c28.875,24.383 95.621,80.743 124.368,105.016c8.127,6.863 11.022,18.117 7.214,28.05c-13.667,35.655 -45.532,118.785 -56.997,148.696c-2.663,6.948 -2.093,14.721 1.555,21.206c16.647,29.592 64.781,115.156 82.738,147.076c4.263,7.578 4.283,16.827 0.051,24.423c-16.387,29.418 -57.918,103.973 -74.944,134.537c-4.575,8.212 -4.156,18.296 1.084,26.101c19.627,29.234 67.87,101.09 88.804,132.271c5.958,8.874 5.615,20.555 -0.853,29.064c-22.685,29.843 -75.015,98.683 -97.701,128.527c-6.469,8.51 -17.633,11.965 -27.778,8.598c-34.626,-11.494 -112.583,-37.37 -141.225,-46.877c-6.873,-2.282 -14.398,-1.471 -20.627,2.223c-30.717,18.215 -125.091,74.178 -159.909,94.824Z" style="fill:#222831;"/><g><g><path d="M162.954,486.791l49.862,-261.031l48.409,200.693l-31.927,320.066l-32.725,47.958l-33.619,-307.686Z" style="fill:none;stroke:#fff;stroke-width:12.5px;"/><path d="M262.717,417.559l52.013,84.382l55.431,-0l46.106,-171.697l49.189,215.354l-33.79,266.431l-29.993,-14.914l-31.512,-295.174" style="fill:none;stroke:#fff;stroke-width:12.5px;"/><path d="M869.589,486.791l-49.862,-261.031l-48.409,200.693l31.928,320.066l32.724,47.958l33.619,-307.686Z" style="fill:none;stroke:#fff;stroke-width:12.5px;"/><path d="M769.826,417.559l-52.013,84.382l-55.431,-0l-46.106,-171.697l-49.189,215.354l33.79,266.431l29.993,-14.914l31.512,-295.174" style="fill:none;stroke:#fff;stroke-width:12.5px;"/><ellipse cx="212.943" cy="229.597" rx="16.853" ry="16.858" style="fill:#fff;"/><ellipse cx="261.225" cy="415.524" rx="16.853" ry="16.858" style="fill:#fff;"/><ellipse cx="162.954" cy="482.82" rx="16.853" ry="16.858" style="fill:#fff;"/><ellipse cx="212.943" cy="229.597" rx="16.853" ry="16.858" style="fill:#fff;"/><ellipse cx="314.926" cy="499.678" rx="16.853" ry="16.858" style="fill:#fff;"/><ellipse cx="370.822" cy="499.678" rx="16.853" ry="16.858" style="fill:#fff;"/><ellipse cx="196.09" cy="783.172" rx="16.853" ry="16.858" style="fill:#fff;"/><ellipse cx="229.796" cy="743.14" rx="16.853" ry="16.858" style="fill:#fff;"/><ellipse cx="413.569" cy="334.73" rx="16.853" ry="16.858" style="fill:#fff;"/><ellipse cx="465.456" cy="537.219" rx="16.853" ry="16.858" style="fill:#fff;"/><ellipse cx="396.716" cy="794.477" rx="16.853" ry="16.858" style="fill:#fff;"/><ellipse cx="431.75" cy="811.334" rx="16.853" ry="16.858" style="fill:#fff;"/><ellipse cx="520.195" cy="461.427" rx="16.853" ry="16.858" style="fill:#fff;"/><path d="M465.063,536.847l57.79,-75.42l44.234,67.431" style="fill:none;stroke:#fff;stroke-width:12.5px;"/><ellipse cx="567.087" cy="528.858" rx="16.853" ry="16.858" style="fill:#fff;"/><ellipse cx="598.18" cy="811.334" rx="16.853" ry="16.858" style="fill:#fff;"/><ellipse cx="631.885" cy="794.477" rx="16.853" ry="16.858" style="fill:#fff;"/><ellipse cx="718.29" cy="495.142" rx="16.853" ry="16.858" style="fill:#fff;"/><ellipse cx="769.826" cy="424.393" rx="16.853" ry="16.858" style="fill:#fff;"/><ellipse cx="820.945" cy="233.576" rx="16.853" ry="16.858" style="fill:#fff;"/><ellipse cx="869.589" cy="493.261" rx="16.853" ry="16.858" style="fill:#fff;"/><ellipse cx="798.171" cy="743.904" rx="16.853" ry="16.858" style="fill:#fff;"/><ellipse cx="835.306" cy="785.619" rx="16.853" ry="16.858" style="fill:#fff;"/><ellipse cx="614.051" cy="330.244" rx="16.853" ry="16.858" style="fill:#fff;"/><ellipse cx="668.457" cy="495.142" rx="16.853" ry="16.858" style="fill:#fff;"/></g></g></g><g><path d="M525.081,1008.24c-8.036,4.765 -18.058,4.652 -25.984,-0.292c-33.463,-20.876 -122.512,-76.429 -152.431,-95.093c-6.311,-3.937 -14.048,-4.86 -21.108,-2.516c-28.901,9.593 -106.404,35.319 -140.9,46.769c-10.145,3.368 -21.309,-0.087 -27.778,-8.598c-22.686,-29.843 -75.016,-98.684 -97.701,-128.526c-6.468,-8.51 -6.811,-20.19 -0.853,-29.065c20.934,-31.18 69.177,-103.037 88.804,-132.27c5.24,-7.805 5.659,-17.889 1.084,-26.102c-17.026,-30.564 -58.557,-105.118 -74.944,-134.536c-4.232,-7.596 -4.212,-16.845 0.051,-24.424c17.957,-31.92 66.091,-117.484 82.738,-147.075c3.648,-6.485 4.218,-14.258 1.555,-21.206c-11.465,-29.911 -43.33,-113.041 -56.997,-148.697c-3.808,-9.932 -0.913,-21.186 7.214,-28.049c28.747,-24.274 95.493,-80.634 124.368,-105.016c8.199,-6.923 19.902,-7.842 29.081,-2.283c34.507,20.9 116.934,70.821 139.711,84.616c3.874,2.347 8.312,3.596 12.841,3.616c32.623,0.144 170.838,0.755 203.717,0.9c4.604,0.02 9.124,-1.231 13.062,-3.616c22.92,-13.881 105.153,-63.686 139.609,-84.555c9.179,-5.559 20.882,-4.64 29.081,2.283c28.875,24.383 95.621,80.743 124.368,105.016c8.127,6.863 11.022,18.117 7.214,28.05c-13.667,35.655 -45.532,118.785 -56.997,148.696c-2.663,6.948 -2.093,14.721 1.555,21.206c16.647,29.592 64.781,115.156 82.738,147.076c4.263,7.578 4.283,16.827 0.051,24.423c-16.387,29.418 -57.918,103.973 -74.944,134.537c-4.575,8.212 -4.156,18.296 1.084,26.101c19.627,29.234 67.87,101.09 88.804,132.271c5.958,8.874 5.615,20.555 -0.853,29.064c-22.685,29.843 -75.015,98.683 -97.701,128.527c-6.469,8.51 -17.633,11.965 -27.778,8.598c-34.626,-11.494 -112.583,-37.37 -141.225,-46.877c-6.873,-2.282 -14.398,-1.471 -20.627,2.223c-30.717,18.215 -125.091,74.178 -159.909,94.824Z" style="fill:#222831;"/><g><g><path d="M162.954,486.791l49.862,-261.031l48.409,200.693l-31.927,320.066l-32.725,47.958l-33.619,-307.686Z" style="fill:none;stroke:#fff;stroke-width:12.5px;"/><path d="M262.717,417.559l52.013,84.382l55.431,-0l46.106,-171.697l49.189,215.354l-33.79,266.431l-29.993,-14.914l-31.512,-295.174" style="fill:none;stroke:#fff;stroke-width:12.5px;"/><path d="M869.589,486.791l-49.862,-261.031l-48.409,200.693l31.928,320.066l32.724,47.958l33.619,-307.686Z" style="fill:none;stroke:#fff;stroke-width:12.5px;"/><path d="M769.826,417.559l-52.013,84.382l-55.431,-0l-46.106,-171.697l-49.189,215.354l33.79,266.431l29.993,-14.914l31.512,-295.174" style="fill:none;stroke:#fff;stroke-width:12.5px;"/><ellipse cx="212.943" cy="229.597" rx="16.853" ry="16.858" style="fill:#fff;"/><ellipse cx="261.225" cy="415.524" rx="16.853" ry="16.858" style="fill:#fff;"/><ellipse cx="162.954" cy="482.82" rx="16.853" ry="16.858" style="fill:#fff;"/><ellipse cx="212.943" cy="229.597" rx="16.853" ry="16.858" style="fill:#fff;"/><ellipse cx="314.926" cy="499.678" rx="16.853" ry="16.858" style="fill:#fff;"/><ellipse cx="370.822" cy="499.678" rx="16.853" ry="16.858" style="fill:#fff;"/><ellipse cx="196.09" cy="783.172" rx="16.853" ry="16.858" style="fill:#fff;"/><ellipse cx="229.796" cy="743.14" rx="16.853" ry="16.858" style="fill:#fff;"/><ellipse cx="413.569" cy="334.73" rx="16.853" ry="16.858" style="fill:#fff;"/><ellipse cx="465.456" cy="537.219" rx="16.853" ry="16.858" style="fill:#fff;"/><ellipse cx="396.716" cy="794.477" rx="16.853" ry="16.858" style="fill:#fff;"/><ellipse cx="431.75" cy="811.334" rx="16.853" ry="16.858" style="fill:#fff;"/><ellipse cx="520.195" cy="461.427" rx="16.853" ry="16.858" style="fill:#fff;"/><path d="M465.063,536.847l57.79,-75.42l44.234,67.431" style="fill:none;stroke:#fff;stroke-width:12.5px;"/><ellipse cx="567.087" cy="528.858" rx="16.853" ry="16.858" style="fill:#fff;"/><ellipse cx="598.18" cy="811.334" rx="16.853" ry="16.858" style="fill:#fff;"/><ellipse cx="631.885" cy="794.477" rx="16.853" ry="16.858" style="fill:#fff;"/><ellipse cx="718.29" cy="495.142" rx="16.853" ry="16.858" style="fill:#fff;"/><ellipse cx="769.826" cy="424.393" rx="16.853" ry="16.858" style="fill:#fff;"/><ellipse cx="820.945" cy="233.576" rx="16.853" ry="16.858" style="fill:#fff;"/><ellipse cx="869.589" cy="493.261" rx="16.853" ry="16.858" style="fill:#fff;"/><ellipse cx="798.171" cy="743.904" rx="16.853" ry="16.858" style="fill:#fff;"/><ellipse cx="835.306" cy="785.619" rx="16.853" ry="16.858" style="fill:#fff;"/><ellipse cx="614.051" cy="330.244" rx="16.853" ry="16.858" style="fill:#fff;"/><ellipse cx="668.457" cy="495.142" rx="16.853" ry="16.858" style="fill:#fff;"/></g></g></g></g></svg>